<?xml version="1.0" encoding="UTF-8"?>
<svg xmlns="http://www.w3.org/2000/svg" xmlns:xlink="http://www.w3.org/1999/xlink" width="34px" height="32px" viewBox="0 0 34 32" version="1.1">
<g id="surface1">
<path style=" stroke:none;fill-rule:nonzero;fill:rgb(0%,68.235296%,93.725491%);fill-opacity:1;" d="M 16.410156 13.285156 C 16.410156 12.984375 16.167969 12.738281 15.863281 12.738281 C 15.5625 12.738281 15.320312 12.984375 15.320312 13.285156 C 15.320312 13.589844 15.5625 13.832031 15.863281 13.832031 C 16.167969 13.832031 16.410156 13.589844 16.410156 13.285156 Z M 16.410156 13.285156 "/>
<path style=" stroke:none;fill-rule:nonzero;fill:rgb(0%,68.235296%,93.725491%);fill-opacity:1;" d="M 18.015625 13.285156 C 18.015625 12.984375 17.773438 12.738281 17.472656 12.738281 C 17.167969 12.738281 16.925781 12.984375 16.925781 13.285156 C 16.925781 13.589844 17.167969 13.832031 17.472656 13.832031 C 17.773438 13.832031 18.015625 13.589844 18.015625 13.285156 Z M 18.015625 13.285156 "/>
<path style=" stroke:none;fill-rule:nonzero;fill:rgb(0%,0%,0%);fill-opacity:1;" d="M 16.667969 6.714844 C 17.503906 5.042969 19.085938 3.871094 20.929688 3.574219 C 22.769531 3.273438 24.640625 3.875 25.960938 5.199219 C 23.867188 2.113281 20.386719 0.265625 16.667969 0.265625 C 12.949219 0.265625 9.46875 2.113281 7.375 5.199219 C 8.695312 3.875 10.566406 3.273438 12.40625 3.574219 C 14.25 3.871094 15.832031 5.042969 16.667969 6.714844 "/>
<path style=" stroke:none;fill-rule:nonzero;fill:rgb(0%,0%,0%);fill-opacity:1;" d="M 30.769531 9.328125 C 30.773438 8.351562 30.320312 7.433594 29.546875 6.847656 C 28.777344 6.257812 27.773438 6.066406 26.839844 6.328125 C 27.894531 8.09375 27.945312 10.289062 26.96875 12.101562 C 25.992188 13.914062 24.132812 15.074219 22.082031 15.152344 C 22.34375 15.824219 22.476562 16.539062 22.476562 17.257812 C 22.476562 17.425781 22.46875 17.59375 22.453125 17.757812 L 10.882812 17.757812 C 10.867188 17.59375 10.859375 17.425781 10.859375 17.257812 C 10.859375 16.539062 10.992188 15.824219 11.253906 15.152344 C 9.203125 15.074219 7.34375 13.914062 6.367188 12.101562 C 5.390625 10.289062 5.441406 8.09375 6.496094 6.328125 C 5.355469 6.007812 4.132812 6.371094 3.347656 7.257812 C 2.558594 8.144531 2.34375 9.40625 2.792969 10.507812 C 3.242188 11.605469 4.273438 12.355469 5.457031 12.433594 L 5.722656 16.546875 L 6.210938 15.71875 L 7.59375 19.75 L 7.816406 18.527344 L 10.976562 22.464844 L 10.789062 21.179688 C 11.886719 21.859375 13.09375 22.339844 14.351562 22.605469 C 12.640625 21.855469 11.390625 20.328125 10.992188 18.492188 L 22.34375 18.492188 C 21.945312 20.328125 20.695312 21.855469 18.984375 22.605469 C 20.246094 22.339844 21.453125 21.859375 22.546875 21.179688 L 22.359375 22.464844 L 25.523438 18.527344 L 25.746094 19.75 L 27.128906 15.71875 L 27.613281 16.550781 L 27.882812 12.433594 C 29.507812 12.324219 30.769531 10.964844 30.769531 9.328125 "/>
<path style=" stroke:none;fill-rule:nonzero;fill:rgb(0%,68.235296%,93.725491%);fill-opacity:1;" d="M 23.324219 12.042969 C 23.488281 11.945312 23.640625 11.828125 23.78125 11.695312 C 23.851562 11.628906 23.917969 11.558594 23.980469 11.488281 C 24.039062 11.417969 24.097656 11.347656 24.152344 11.269531 C 24.210938 11.191406 24.257812 11.117188 24.308594 11.035156 C 24.355469 10.953125 24.398438 10.871094 24.4375 10.785156 C 24.472656 10.703125 24.507812 10.613281 24.542969 10.527344 C 24.574219 10.441406 24.597656 10.351562 24.621094 10.261719 C 24.644531 10.171875 24.664062 10.082031 24.675781 9.988281 C 24.691406 9.898438 24.699219 9.804688 24.707031 9.710938 C 24.710938 9.621094 24.710938 9.527344 24.707031 9.433594 C 24.703125 9.339844 24.695312 9.246094 24.679688 9.15625 C 24.65625 8.96875 24.609375 8.785156 24.546875 8.605469 C 24.480469 8.421875 24.398438 8.246094 24.296875 8.082031 C 24.15625 7.855469 23.980469 7.648438 23.78125 7.472656 C 23.71875 7.414062 23.644531 7.359375 23.574219 7.308594 C 23.503906 7.257812 23.433594 7.214844 23.355469 7.167969 C 23.277344 7.121094 23.203125 7.085938 23.128906 7.046875 C 23.050781 7.011719 22.96875 6.980469 22.886719 6.949219 C 22.804688 6.921875 22.722656 6.898438 22.640625 6.875 C 22.558594 6.855469 22.472656 6.839844 22.390625 6.824219 C 22.304688 6.8125 22.21875 6.804688 22.132812 6.796875 C 22.046875 6.792969 21.960938 6.792969 21.875 6.796875 C 21.789062 6.800781 21.703125 6.808594 21.617188 6.824219 C 21.53125 6.835938 21.445312 6.851562 21.359375 6.875 C 21.273438 6.894531 21.191406 6.921875 21.109375 6.949219 C 21.023438 6.980469 20.941406 7.015625 20.863281 7.054688 C 20.78125 7.09375 20.703125 7.140625 20.625 7.1875 C 20.554688 7.230469 20.484375 7.28125 20.417969 7.332031 C 20.355469 7.382812 20.292969 7.4375 20.230469 7.492188 C 20.171875 7.546875 20.117188 7.605469 20.0625 7.667969 C 20.011719 7.730469 19.960938 7.796875 19.914062 7.859375 C 19.730469 8.121094 19.59375 8.414062 19.515625 8.726562 C 19.480469 8.882812 19.457031 9.042969 19.449219 9.199219 C 19.441406 9.28125 19.441406 9.359375 19.449219 9.441406 C 19.453125 9.519531 19.457031 9.601562 19.46875 9.679688 C 19.503906 9.921875 19.578125 10.160156 19.6875 10.378906 C 19.726562 10.457031 19.765625 10.53125 19.8125 10.601562 C 19.894531 10.730469 19.988281 10.851562 20.09375 10.960938 C 20.195312 11.070312 20.308594 11.167969 20.429688 11.253906 C 20.671875 11.421875 20.941406 11.546875 21.226562 11.617188 C 21.371094 11.652344 21.515625 11.671875 21.664062 11.679688 C 21.808594 11.6875 21.957031 11.679688 22.101562 11.65625 C 22.25 11.632812 22.394531 11.597656 22.535156 11.542969 C 22.605469 11.519531 22.675781 11.488281 22.742188 11.453125 C 22.8125 11.417969 22.878906 11.378906 22.945312 11.335938 C 23.0625 11.261719 23.171875 11.175781 23.269531 11.078125 C 23.367188 10.984375 23.457031 10.878906 23.535156 10.769531 C 23.609375 10.65625 23.675781 10.539062 23.730469 10.414062 C 23.785156 10.292969 23.828125 10.167969 23.863281 10.039062 C 23.894531 9.90625 23.910156 9.773438 23.917969 9.640625 C 23.921875 9.503906 23.914062 9.371094 23.894531 9.238281 C 23.851562 8.960938 23.75 8.699219 23.597656 8.464844 C 23.527344 8.359375 23.449219 8.257812 23.359375 8.167969 C 23.273438 8.078125 23.175781 8 23.078125 7.929688 C 22.976562 7.859375 22.871094 7.800781 22.757812 7.75 C 22.648438 7.699219 22.53125 7.664062 22.414062 7.636719 C 22.296875 7.605469 22.175781 7.589844 22.054688 7.585938 C 21.679688 7.570312 21.3125 7.675781 21 7.882812 C 20.90625 7.945312 20.820312 8.015625 20.738281 8.097656 C 20.660156 8.175781 20.589844 8.261719 20.527344 8.351562 C 20.46875 8.441406 20.414062 8.539062 20.371094 8.640625 C 20.328125 8.738281 20.292969 8.84375 20.269531 8.949219 C 20.246094 9.054688 20.234375 9.164062 20.230469 9.273438 C 20.226562 9.382812 20.234375 9.492188 20.253906 9.601562 C 20.273438 9.710938 20.300781 9.816406 20.34375 9.917969 C 20.386719 10.027344 20.441406 10.128906 20.503906 10.222656 C 20.617188 10.386719 20.757812 10.527344 20.921875 10.636719 C 21.082031 10.742188 21.261719 10.820312 21.453125 10.863281 C 21.546875 10.882812 21.640625 10.894531 21.738281 10.894531 C 22.035156 10.902344 22.328125 10.816406 22.574219 10.644531 C 22.644531 10.59375 22.710938 10.535156 22.769531 10.472656 C 22.945312 10.289062 23.066406 10.054688 23.117188 9.804688 C 23.132812 9.722656 23.140625 9.636719 23.140625 9.554688 C 23.144531 9.46875 23.136719 9.382812 23.117188 9.300781 C 23.082031 9.128906 23.011719 8.964844 22.910156 8.824219 C 22.734375 8.585938 22.476562 8.425781 22.1875 8.371094 C 22.117188 8.359375 22.046875 8.351562 21.972656 8.351562 C 21.902344 8.355469 21.828125 8.363281 21.757812 8.378906 C 21.613281 8.410156 21.472656 8.476562 21.355469 8.566406 C 21.308594 8.605469 21.261719 8.648438 21.222656 8.691406 C 21.183594 8.738281 21.148438 8.789062 21.117188 8.839844 C 21.054688 8.945312 21.015625 9.0625 20.996094 9.179688 C 20.988281 9.238281 20.984375 9.300781 20.984375 9.359375 C 20.992188 9.550781 21.066406 9.730469 21.1875 9.875 C 21.21875 9.910156 21.253906 9.945312 21.292969 9.972656 C 21.367188 10.035156 21.453125 10.078125 21.542969 10.109375 C 21.589844 10.121094 21.636719 10.132812 21.683594 10.136719 C 21.730469 10.144531 21.78125 10.144531 21.828125 10.136719 C 21.878906 10.132812 21.929688 10.125 21.980469 10.109375 C 22.027344 10.09375 22.074219 10.070312 22.121094 10.046875 C 22.167969 10.015625 22.210938 9.984375 22.246094 9.945312 C 22.296875 9.890625 22.335938 9.832031 22.367188 9.765625 C 22.394531 9.695312 22.410156 9.625 22.414062 9.550781 C 22.414062 9.511719 22.414062 9.472656 22.40625 9.433594 C 22.398438 9.390625 22.382812 9.351562 22.367188 9.3125 C 22.273438 9.125 22.136719 9.109375 22.113281 9.113281 C 22.105469 9.113281 22.109375 9.132812 22.109375 9.140625 C 22.128906 9.289062 22.132812 9.4375 22.027344 9.535156 C 21.949219 9.605469 21.84375 9.636719 21.742188 9.617188 C 21.710938 9.613281 21.679688 9.601562 21.652344 9.589844 C 21.625 9.574219 21.601562 9.554688 21.578125 9.53125 C 21.546875 9.492188 21.527344 9.445312 21.515625 9.398438 C 21.507812 9.347656 21.507812 9.296875 21.515625 9.246094 C 21.527344 9.195312 21.546875 9.144531 21.574219 9.097656 C 21.601562 9.050781 21.636719 9.011719 21.679688 8.976562 C 21.707031 8.953125 21.742188 8.933594 21.777344 8.917969 C 21.808594 8.902344 21.84375 8.890625 21.882812 8.882812 C 21.917969 8.875 21.953125 8.871094 21.992188 8.871094 C 22.027344 8.875 22.066406 8.882812 22.101562 8.890625 C 22.214844 8.914062 22.320312 8.96875 22.40625 9.046875 C 22.4375 9.074219 22.464844 9.105469 22.488281 9.136719 C 22.515625 9.175781 22.542969 9.222656 22.5625 9.269531 C 22.582031 9.316406 22.597656 9.363281 22.605469 9.410156 C 22.613281 9.460938 22.617188 9.511719 22.617188 9.558594 C 22.617188 9.609375 22.613281 9.660156 22.605469 9.710938 C 22.582031 9.8125 22.542969 9.90625 22.488281 9.992188 C 22.460938 10.035156 22.429688 10.074219 22.394531 10.113281 C 22.359375 10.152344 22.316406 10.183594 22.277344 10.214844 C 22.222656 10.25 22.167969 10.28125 22.105469 10.308594 C 21.992188 10.355469 21.867188 10.375 21.742188 10.371094 C 21.679688 10.367188 21.617188 10.359375 21.558594 10.347656 C 21.496094 10.332031 21.433594 10.3125 21.378906 10.289062 C 21.320312 10.265625 21.265625 10.234375 21.210938 10.199219 C 21.160156 10.164062 21.109375 10.125 21.0625 10.078125 C 21.015625 10.03125 20.972656 9.984375 20.9375 9.929688 C 20.851562 9.800781 20.792969 9.65625 20.769531 9.507812 C 20.757812 9.433594 20.753906 9.359375 20.753906 9.28125 C 20.757812 9.207031 20.765625 9.132812 20.785156 9.058594 C 20.800781 8.984375 20.824219 8.914062 20.855469 8.84375 C 20.886719 8.773438 20.921875 8.707031 20.964844 8.644531 C 21.007812 8.582031 21.054688 8.523438 21.109375 8.46875 C 21.164062 8.414062 21.226562 8.363281 21.289062 8.320312 C 21.363281 8.269531 21.445312 8.226562 21.527344 8.195312 C 21.613281 8.164062 21.695312 8.140625 21.785156 8.125 C 21.871094 8.113281 21.957031 8.105469 22.042969 8.109375 C 22.132812 8.113281 22.21875 8.125 22.304688 8.144531 C 22.5625 8.207031 22.800781 8.339844 22.988281 8.53125 C 23.050781 8.597656 23.109375 8.667969 23.160156 8.746094 C 23.214844 8.832031 23.261719 8.925781 23.296875 9.023438 C 23.335938 9.117188 23.359375 9.214844 23.375 9.316406 C 23.390625 9.414062 23.394531 9.515625 23.390625 9.617188 C 23.382812 9.820312 23.332031 10.015625 23.25 10.199219 C 23.167969 10.386719 23.050781 10.554688 22.902344 10.699219 C 22.828125 10.769531 22.75 10.835938 22.660156 10.890625 C 22.5625 10.957031 22.457031 11.007812 22.347656 11.046875 C 22.238281 11.089844 22.128906 11.117188 22.015625 11.132812 C 21.90625 11.148438 21.792969 11.15625 21.679688 11.148438 C 21.566406 11.144531 21.453125 11.125 21.34375 11.097656 C 21.125 11.042969 20.914062 10.949219 20.726562 10.816406 C 20.636719 10.75 20.546875 10.675781 20.46875 10.59375 C 20.386719 10.507812 20.316406 10.417969 20.253906 10.316406 C 20.113281 10.097656 20.023438 9.851562 19.988281 9.59375 C 19.96875 9.46875 19.964844 9.34375 19.972656 9.21875 C 19.976562 9.089844 19.996094 8.964844 20.027344 8.84375 C 20.058594 8.722656 20.101562 8.601562 20.152344 8.484375 C 20.207031 8.371094 20.269531 8.261719 20.34375 8.15625 C 20.417969 8.050781 20.5 7.953125 20.59375 7.867188 C 20.792969 7.675781 21.027344 7.53125 21.285156 7.4375 C 21.417969 7.390625 21.554688 7.355469 21.691406 7.335938 C 21.832031 7.316406 21.96875 7.3125 22.109375 7.320312 C 22.246094 7.328125 22.382812 7.347656 22.519531 7.382812 C 22.652344 7.417969 22.785156 7.464844 22.910156 7.523438 C 23.167969 7.640625 23.398438 7.804688 23.589844 8.011719 C 23.691406 8.117188 23.777344 8.230469 23.851562 8.351562 C 23.9375 8.488281 24.003906 8.628906 24.058594 8.78125 C 24.109375 8.925781 24.144531 9.074219 24.167969 9.226562 C 24.1875 9.378906 24.191406 9.53125 24.183594 9.683594 C 24.171875 9.835938 24.148438 9.984375 24.113281 10.132812 C 24.074219 10.28125 24.023438 10.425781 23.960938 10.566406 C 23.894531 10.703125 23.816406 10.835938 23.730469 10.960938 C 23.640625 11.085938 23.535156 11.203125 23.425781 11.308594 C 23.367188 11.363281 23.308594 11.414062 23.246094 11.460938 C 23.183594 11.511719 23.117188 11.554688 23.050781 11.597656 C 22.976562 11.644531 22.902344 11.683594 22.824219 11.722656 C 22.746094 11.757812 22.667969 11.792969 22.589844 11.820312 C 22.511719 11.847656 22.429688 11.871094 22.347656 11.890625 C 22.269531 11.910156 22.1875 11.925781 22.105469 11.9375 C 22.023438 11.949219 21.941406 11.953125 21.859375 11.957031 C 21.777344 11.960938 21.695312 11.957031 21.613281 11.953125 C 21.53125 11.949219 21.449219 11.941406 21.367188 11.925781 C 21.285156 11.914062 21.203125 11.898438 21.125 11.875 C 21.046875 11.855469 20.964844 11.832031 20.890625 11.800781 C 20.8125 11.773438 20.734375 11.742188 20.660156 11.707031 C 20.585938 11.671875 20.511719 11.636719 20.441406 11.59375 C 20.367188 11.550781 20.296875 11.503906 20.234375 11.457031 C 20.167969 11.40625 20.097656 11.355469 20.039062 11.296875 C 19.910156 11.1875 19.796875 11.0625 19.691406 10.929688 C 19.640625 10.859375 19.59375 10.789062 19.546875 10.714844 C 19.5 10.636719 19.457031 10.554688 19.414062 10.46875 C 19.375 10.386719 19.339844 10.300781 19.3125 10.214844 C 19.28125 10.128906 19.257812 10.042969 19.234375 9.953125 C 19.214844 9.867188 19.199219 9.777344 19.1875 9.691406 C 19.175781 9.601562 19.167969 9.511719 19.164062 9.421875 C 19.164062 9.332031 19.164062 9.246094 19.167969 9.15625 C 19.175781 9.066406 19.1875 8.972656 19.199219 8.890625 C 19.214844 8.804688 19.230469 8.714844 19.253906 8.628906 C 19.277344 8.542969 19.304688 8.453125 19.332031 8.371094 C 19.363281 8.289062 19.394531 8.207031 19.433594 8.125 C 19.472656 8.042969 19.515625 7.964844 19.5625 7.886719 C 19.605469 7.808594 19.65625 7.734375 19.707031 7.660156 C 19.761719 7.589844 19.816406 7.519531 19.878906 7.449219 C 19.9375 7.382812 20.003906 7.316406 20.066406 7.253906 C 20.132812 7.191406 20.203125 7.132812 20.277344 7.078125 C 20.351562 7.023438 20.425781 6.96875 20.503906 6.921875 C 20.589844 6.867188 20.679688 6.820312 20.769531 6.777344 C 20.859375 6.738281 20.949219 6.699219 21.042969 6.667969 C 21.132812 6.636719 21.226562 6.609375 21.320312 6.585938 C 21.414062 6.5625 21.511719 6.546875 21.605469 6.535156 C 21.699219 6.523438 21.792969 6.515625 21.890625 6.511719 C 21.988281 6.507812 22.078125 6.511719 22.175781 6.515625 C 22.277344 6.519531 22.367188 6.535156 22.460938 6.546875 C 22.558594 6.5625 22.648438 6.582031 22.742188 6.609375 C 22.832031 6.632812 22.921875 6.660156 23.015625 6.691406 C 23.105469 6.726562 23.195312 6.761719 23.277344 6.804688 C 23.363281 6.84375 23.449219 6.890625 23.53125 6.9375 C 23.613281 6.988281 23.695312 7.039062 23.769531 7.097656 C 23.847656 7.15625 23.925781 7.21875 23.996094 7.28125 C 24.066406 7.34375 24.140625 7.414062 24.207031 7.484375 C 24.339844 7.632812 24.457031 7.789062 24.5625 7.960938 C 24.59375 8.015625 24.625 8.070312 24.65625 8.128906 C 24.660156 8.136719 24.664062 8.140625 24.671875 8.140625 C 24.683594 8.144531 24.691406 8.144531 24.699219 8.140625 C 24.710938 8.132812 24.714844 8.117188 24.707031 8.101562 C 24.167969 6.835938 22.863281 6.074219 21.5 6.230469 C 20.136719 6.386719 19.039062 7.425781 18.800781 8.785156 C 18.5625 10.144531 19.242188 11.496094 20.46875 12.113281 C 20.898438 12.332031 21.375 12.445312 21.859375 12.445312 C 22.183594 12.445312 22.507812 12.390625 22.820312 12.289062 C 22.890625 12.261719 22.972656 12.230469 23.054688 12.191406 C 23.148438 12.148438 23.238281 12.097656 23.324219 12.042969 M 12.941406 12.042969 C 13.105469 11.945312 13.257812 11.828125 13.398438 11.695312 C 13.46875 11.628906 13.535156 11.558594 13.59375 11.488281 C 13.65625 11.417969 13.714844 11.347656 13.769531 11.269531 C 13.828125 11.191406 13.875 11.117188 13.921875 11.035156 C 13.972656 10.953125 14.015625 10.871094 14.050781 10.785156 C 14.089844 10.703125 14.125 10.613281 14.15625 10.527344 C 14.1875 10.441406 14.214844 10.351562 14.238281 10.261719 C 14.261719 10.171875 14.277344 10.082031 14.292969 9.988281 C 14.308594 9.898438 14.316406 9.804688 14.324219 9.710938 C 14.328125 9.621094 14.328125 9.527344 14.324219 9.433594 C 14.320312 9.339844 14.3125 9.246094 14.296875 9.15625 C 14.273438 8.96875 14.226562 8.785156 14.164062 8.605469 C 14.097656 8.421875 14.015625 8.246094 13.914062 8.082031 C 13.769531 7.855469 13.597656 7.648438 13.398438 7.472656 C 13.332031 7.414062 13.261719 7.359375 13.191406 7.308594 C 13.121094 7.257812 13.050781 7.214844 12.972656 7.167969 C 12.894531 7.121094 12.820312 7.085938 12.742188 7.046875 C 12.667969 7.011719 12.585938 6.980469 12.503906 6.949219 C 12.421875 6.921875 12.339844 6.898438 12.257812 6.875 C 12.175781 6.855469 12.089844 6.839844 12.003906 6.824219 C 11.921875 6.8125 11.835938 6.804688 11.75 6.796875 C 11.664062 6.792969 11.578125 6.792969 11.492188 6.796875 C 11.40625 6.800781 11.320312 6.808594 11.234375 6.824219 C 11.148438 6.835938 11.0625 6.851562 10.976562 6.875 C 10.890625 6.894531 10.808594 6.921875 10.726562 6.949219 C 10.640625 6.980469 10.558594 7.015625 10.480469 7.054688 C 10.398438 7.09375 10.316406 7.140625 10.242188 7.1875 C 10.171875 7.230469 10.101562 7.28125 10.035156 7.332031 C 9.972656 7.382812 9.910156 7.4375 9.847656 7.492188 C 9.789062 7.546875 9.734375 7.605469 9.679688 7.667969 C 9.628906 7.730469 9.578125 7.796875 9.53125 7.859375 C 9.34375 8.121094 9.210938 8.414062 9.132812 8.726562 C 9.097656 8.882812 9.074219 9.042969 9.0625 9.199219 C 9.058594 9.28125 9.058594 9.359375 9.0625 9.441406 C 9.070312 9.519531 9.074219 9.601562 9.085938 9.679688 C 9.121094 9.921875 9.195312 10.160156 9.304688 10.378906 C 9.339844 10.457031 9.382812 10.53125 9.429688 10.601562 C 9.511719 10.730469 9.605469 10.851562 9.710938 10.960938 C 9.8125 11.070312 9.925781 11.167969 10.046875 11.253906 C 10.289062 11.421875 10.558594 11.546875 10.84375 11.617188 C 10.988281 11.652344 11.132812 11.671875 11.277344 11.679688 C 11.425781 11.6875 11.574219 11.679688 11.71875 11.65625 C 11.867188 11.632812 12.011719 11.597656 12.152344 11.542969 C 12.222656 11.519531 12.292969 11.488281 12.359375 11.453125 C 12.429688 11.417969 12.496094 11.378906 12.5625 11.335938 C 12.679688 11.261719 12.789062 11.175781 12.886719 11.078125 C 12.984375 10.984375 13.074219 10.878906 13.148438 10.769531 C 13.226562 10.65625 13.292969 10.539062 13.347656 10.414062 C 13.402344 10.292969 13.445312 10.167969 13.476562 10.039062 C 13.507812 9.90625 13.527344 9.773438 13.535156 9.640625 C 13.539062 9.503906 13.53125 9.371094 13.511719 9.238281 C 13.46875 8.960938 13.367188 8.699219 13.214844 8.464844 C 13.148438 8.359375 13.070312 8.261719 12.980469 8.171875 C 12.894531 8.085938 12.800781 8.003906 12.699219 7.933594 C 12.597656 7.867188 12.492188 7.804688 12.378906 7.757812 C 12.269531 7.707031 12.152344 7.667969 12.035156 7.640625 C 11.917969 7.613281 11.796875 7.597656 11.675781 7.59375 C 11.300781 7.574219 10.929688 7.675781 10.617188 7.882812 C 10.523438 7.945312 10.433594 8.015625 10.355469 8.097656 C 10.277344 8.175781 10.207031 8.261719 10.144531 8.351562 C 10.082031 8.441406 10.03125 8.539062 9.988281 8.640625 C 9.945312 8.738281 9.910156 8.84375 9.886719 8.949219 C 9.863281 9.054688 9.847656 9.164062 9.847656 9.273438 C 9.84375 9.382812 9.851562 9.492188 9.867188 9.601562 C 9.886719 9.710938 9.917969 9.816406 9.960938 9.921875 C 10.003906 10.027344 10.054688 10.128906 10.121094 10.222656 C 10.230469 10.386719 10.375 10.527344 10.539062 10.636719 C 10.699219 10.746094 10.878906 10.820312 11.066406 10.863281 C 11.160156 10.882812 11.257812 10.894531 11.355469 10.894531 C 11.652344 10.902344 11.945312 10.816406 12.1875 10.644531 C 12.261719 10.59375 12.324219 10.535156 12.386719 10.472656 C 12.5625 10.289062 12.679688 10.058594 12.734375 9.804688 C 12.75 9.722656 12.757812 9.636719 12.757812 9.554688 C 12.757812 9.46875 12.75 9.382812 12.734375 9.300781 C 12.699219 9.128906 12.628906 8.964844 12.523438 8.824219 C 12.351562 8.585938 12.09375 8.425781 11.804688 8.371094 C 11.734375 8.359375 11.660156 8.351562 11.589844 8.351562 C 11.515625 8.355469 11.445312 8.363281 11.375 8.378906 C 11.226562 8.410156 11.089844 8.476562 10.972656 8.566406 C 10.921875 8.605469 10.878906 8.648438 10.839844 8.695312 C 10.800781 8.738281 10.765625 8.789062 10.734375 8.84375 C 10.671875 8.945312 10.632812 9.0625 10.613281 9.179688 C 10.601562 9.242188 10.597656 9.300781 10.601562 9.363281 C 10.609375 9.550781 10.679688 9.730469 10.804688 9.875 C 10.835938 9.910156 10.871094 9.945312 10.910156 9.976562 C 10.984375 10.035156 11.070312 10.082031 11.160156 10.109375 C 11.207031 10.125 11.25 10.132812 11.300781 10.140625 C 11.347656 10.144531 11.398438 10.144531 11.445312 10.140625 C 11.496094 10.132812 11.546875 10.125 11.59375 10.109375 C 11.644531 10.09375 11.691406 10.074219 11.738281 10.046875 C 11.78125 10.019531 11.824219 9.984375 11.863281 9.945312 C 11.914062 9.894531 11.953125 9.832031 11.984375 9.765625 C 12.011719 9.699219 12.027344 9.625 12.03125 9.550781 C 12.03125 9.511719 12.027344 9.472656 12.019531 9.433594 C 12.011719 9.390625 12 9.351562 11.980469 9.3125 C 11.890625 9.125 11.753906 9.109375 11.730469 9.113281 C 11.722656 9.113281 11.722656 9.132812 11.726562 9.140625 C 11.746094 9.289062 11.75 9.4375 11.644531 9.535156 C 11.566406 9.609375 11.460938 9.636719 11.355469 9.617188 C 11.324219 9.613281 11.296875 9.601562 11.269531 9.589844 C 11.242188 9.574219 11.21875 9.554688 11.195312 9.53125 C 11.164062 9.492188 11.144531 9.445312 11.132812 9.398438 C 11.125 9.347656 11.125 9.296875 11.132812 9.246094 C 11.144531 9.195312 11.164062 9.144531 11.1875 9.097656 C 11.214844 9.050781 11.253906 9.011719 11.292969 8.976562 C 11.324219 8.953125 11.359375 8.933594 11.390625 8.917969 C 11.425781 8.902344 11.460938 8.890625 11.496094 8.882812 C 11.535156 8.878906 11.570312 8.875 11.609375 8.875 C 11.644531 8.875 11.683594 8.878906 11.71875 8.886719 C 11.835938 8.90625 11.941406 8.960938 12.027344 9.039062 C 12.054688 9.066406 12.082031 9.097656 12.105469 9.128906 C 12.132812 9.171875 12.160156 9.21875 12.175781 9.269531 C 12.195312 9.316406 12.210938 9.363281 12.21875 9.414062 C 12.230469 9.460938 12.234375 9.511719 12.234375 9.5625 C 12.230469 9.613281 12.226562 9.660156 12.214844 9.710938 C 12.195312 9.808594 12.15625 9.90625 12.101562 9.992188 C 12.074219 10.035156 12.039062 10.074219 12.003906 10.113281 C 11.96875 10.148438 11.929688 10.183594 11.886719 10.214844 C 11.835938 10.25 11.777344 10.28125 11.71875 10.308594 C 11.601562 10.351562 11.476562 10.375 11.355469 10.371094 C 11.292969 10.367188 11.230469 10.359375 11.167969 10.347656 C 11.105469 10.332031 11.046875 10.3125 10.988281 10.289062 C 10.929688 10.261719 10.875 10.234375 10.824219 10.199219 C 10.769531 10.164062 10.71875 10.121094 10.675781 10.078125 C 10.628906 10.03125 10.585938 9.980469 10.550781 9.929688 C 10.464844 9.800781 10.40625 9.65625 10.378906 9.507812 C 10.367188 9.433594 10.363281 9.355469 10.367188 9.28125 C 10.371094 9.207031 10.378906 9.132812 10.394531 9.058594 C 10.414062 8.984375 10.4375 8.914062 10.464844 8.84375 C 10.496094 8.773438 10.53125 8.707031 10.574219 8.644531 C 10.617188 8.582031 10.667969 8.523438 10.722656 8.46875 C 10.777344 8.414062 10.835938 8.363281 10.902344 8.320312 C 10.976562 8.269531 11.054688 8.226562 11.140625 8.195312 C 11.222656 8.160156 11.308594 8.140625 11.394531 8.125 C 11.480469 8.109375 11.570312 8.105469 11.65625 8.109375 C 11.742188 8.113281 11.832031 8.125 11.914062 8.144531 C 12.175781 8.207031 12.414062 8.339844 12.601562 8.53125 C 12.664062 8.597656 12.71875 8.667969 12.769531 8.746094 C 12.828125 8.832031 12.875 8.925781 12.910156 9.023438 C 12.945312 9.117188 12.972656 9.214844 12.988281 9.316406 C 13.003906 9.414062 13.007812 9.515625 13.003906 9.617188 C 12.992188 9.816406 12.945312 10.015625 12.863281 10.199219 C 12.78125 10.386719 12.660156 10.554688 12.515625 10.699219 C 12.441406 10.769531 12.359375 10.835938 12.273438 10.890625 C 12.175781 10.953125 12.070312 11.007812 11.957031 11.046875 C 11.851562 11.085938 11.742188 11.117188 11.628906 11.132812 C 11.515625 11.148438 11.402344 11.152344 11.289062 11.148438 C 11.175781 11.140625 11.066406 11.125 10.957031 11.097656 C 10.734375 11.042969 10.527344 10.949219 10.339844 10.816406 C 10.246094 10.75 10.160156 10.675781 10.078125 10.59375 C 9.996094 10.507812 9.925781 10.414062 9.863281 10.316406 C 9.726562 10.097656 9.636719 9.851562 9.601562 9.597656 C 9.582031 9.472656 9.578125 9.34375 9.585938 9.21875 C 9.59375 9.09375 9.609375 8.96875 9.640625 8.84375 C 9.671875 8.722656 9.714844 8.601562 9.765625 8.488281 C 9.820312 8.371094 9.882812 8.261719 9.957031 8.15625 C 10.03125 8.054688 10.113281 7.957031 10.207031 7.867188 C 10.40625 7.675781 10.644531 7.53125 10.902344 7.4375 C 11.035156 7.390625 11.171875 7.355469 11.308594 7.335938 C 11.445312 7.316406 11.585938 7.3125 11.722656 7.320312 C 11.863281 7.328125 12 7.347656 12.132812 7.382812 C 12.269531 7.417969 12.402344 7.464844 12.527344 7.523438 C 12.78125 7.640625 13.015625 7.804688 13.207031 8.011719 C 13.304688 8.117188 13.394531 8.230469 13.46875 8.351562 C 13.554688 8.488281 13.621094 8.628906 13.675781 8.78125 C 13.726562 8.925781 13.761719 9.074219 13.78125 9.226562 C 13.804688 9.378906 13.808594 9.53125 13.800781 9.683594 C 13.789062 9.835938 13.765625 9.984375 13.730469 10.132812 C 13.691406 10.28125 13.640625 10.425781 13.578125 10.5625 C 13.511719 10.703125 13.4375 10.835938 13.347656 10.960938 C 13.257812 11.085938 13.15625 11.203125 13.042969 11.308594 C 12.984375 11.363281 12.925781 11.414062 12.863281 11.460938 C 12.800781 11.507812 12.734375 11.554688 12.667969 11.59375 C 12.59375 11.640625 12.519531 11.683594 12.441406 11.722656 C 12.367188 11.757812 12.289062 11.789062 12.207031 11.820312 C 12.128906 11.847656 12.046875 11.871094 11.96875 11.890625 C 11.886719 11.910156 11.804688 11.925781 11.722656 11.933594 C 11.640625 11.945312 11.558594 11.953125 11.476562 11.957031 C 11.394531 11.957031 11.3125 11.957031 11.230469 11.953125 C 11.148438 11.945312 11.066406 11.9375 10.984375 11.925781 C 10.902344 11.910156 10.824219 11.894531 10.742188 11.875 C 10.664062 11.855469 10.585938 11.828125 10.507812 11.800781 C 10.429688 11.773438 10.351562 11.742188 10.277344 11.707031 C 10.203125 11.671875 10.132812 11.632812 10.058594 11.589844 C 9.988281 11.546875 9.917969 11.5 9.851562 11.453125 C 9.785156 11.40625 9.71875 11.351562 9.65625 11.296875 C 9.527344 11.183594 9.414062 11.0625 9.3125 10.925781 C 9.257812 10.859375 9.210938 10.785156 9.164062 10.714844 C 9.117188 10.632812 9.074219 10.550781 9.035156 10.46875 C 8.996094 10.386719 8.960938 10.300781 8.929688 10.214844 C 8.898438 10.128906 8.875 10.042969 8.851562 9.953125 C 8.832031 9.867188 8.816406 9.777344 8.804688 9.6875 C 8.792969 9.601562 8.785156 9.511719 8.785156 9.421875 C 8.78125 9.332031 8.785156 9.242188 8.789062 9.152344 C 8.792969 9.066406 8.804688 8.972656 8.816406 8.886719 C 8.832031 8.804688 8.847656 8.714844 8.871094 8.628906 C 8.894531 8.542969 8.921875 8.453125 8.949219 8.371094 C 8.980469 8.289062 9.011719 8.203125 9.054688 8.125 C 9.09375 8.042969 9.132812 7.964844 9.179688 7.886719 C 9.222656 7.808594 9.273438 7.734375 9.324219 7.660156 C 9.378906 7.585938 9.4375 7.515625 9.496094 7.449219 C 9.554688 7.382812 9.621094 7.316406 9.683594 7.253906 C 9.75 7.191406 9.820312 7.132812 9.894531 7.078125 C 9.96875 7.019531 10.042969 6.96875 10.125 6.917969 C 10.207031 6.867188 10.296875 6.820312 10.386719 6.777344 C 10.476562 6.734375 10.566406 6.699219 10.660156 6.667969 C 10.753906 6.632812 10.84375 6.605469 10.941406 6.585938 C 11.035156 6.5625 11.128906 6.546875 11.222656 6.535156 C 11.316406 6.519531 11.410156 6.511719 11.507812 6.511719 C 11.605469 6.507812 11.699219 6.511719 11.796875 6.515625 C 11.894531 6.519531 11.984375 6.53125 12.078125 6.546875 C 12.175781 6.5625 12.269531 6.582031 12.359375 6.605469 C 12.449219 6.628906 12.539062 6.660156 12.632812 6.691406 C 12.722656 6.722656 12.8125 6.761719 12.898438 6.800781 C 12.980469 6.839844 13.066406 6.886719 13.148438 6.9375 C 13.230469 6.984375 13.3125 7.039062 13.390625 7.097656 C 13.464844 7.152344 13.542969 7.21875 13.613281 7.277344 C 13.683594 7.339844 13.757812 7.414062 13.824219 7.484375 C 13.957031 7.628906 14.078125 7.789062 14.179688 7.960938 C 14.210938 8.015625 14.242188 8.070312 14.273438 8.125 C 14.277344 8.132812 14.285156 8.140625 14.292969 8.140625 C 14.300781 8.144531 14.308594 8.140625 14.316406 8.136719 C 14.328125 8.128906 14.332031 8.113281 14.328125 8.101562 C 13.785156 6.835938 12.480469 6.078125 11.121094 6.234375 C 9.757812 6.394531 8.660156 7.429688 8.421875 8.785156 C 8.179688 10.140625 8.855469 11.496094 10.082031 12.113281 C 10.511719 12.332031 10.988281 12.445312 11.46875 12.445312 C 11.796875 12.445312 12.121094 12.394531 12.433594 12.292969 C 12.503906 12.265625 12.585938 12.234375 12.664062 12.195312 C 12.761719 12.148438 12.851562 12.097656 12.941406 12.042969 "/>
<path style=" stroke:none;fill-rule:nonzero;fill:rgb(0%,68.235296%,93.725491%);fill-opacity:1;" d="M 17.816406 23.589844 L 19.363281 23.589844 L 19.363281 31.546875 L 17.816406 31.546875 Z M 14.84375 23.589844 L 10.640625 23.589844 L 10.640625 31.546875 L 14.84375 31.546875 C 15.6875 31.546875 16.371094 30.859375 16.371094 30.011719 L 16.371094 25.125 C 16.371094 24.277344 15.6875 23.589844 14.84375 23.589844 M 14.992188 29.453125 C 14.992188 29.84375 14.679688 30.160156 14.289062 30.160156 L 12.1875 30.160156 L 12.1875 24.976562 L 14.289062 24.976562 C 14.679688 24.976562 14.992188 25.292969 14.992188 25.683594 Z M 14.992188 29.453125 "/>
<path style=" stroke:none;fill-rule:nonzero;fill:rgb(0%,0%,0%);fill-opacity:1;" d="M 7.648438 23.589844 L 9.195312 23.589844 L 9.195312 31.546875 L 7.648438 31.546875 Z M 4.652344 23.589844 L 4.652344 26.867188 L 2.015625 26.867188 L 2.015625 23.589844 L 2 23.589844 C 1.152344 23.589844 0.46875 24.277344 0.46875 25.125 L 0.46875 31.546875 L 2.015625 31.546875 L 2.015625 28.25 L 4.652344 28.25 L 4.652344 31.546875 L 6.199219 31.546875 L 6.199219 23.589844 Z M 4.652344 23.589844 "/>
<path style=" stroke:none;fill-rule:nonzero;fill:rgb(0%,68.235296%,93.725491%);fill-opacity:1;" d="M 32.898438 28.25 L 32.898438 26.867188 L 29.191406 26.867188 L 29.191406 24.976562 L 32.886719 24.976562 C 32.808594 24.191406 32.15625 23.59375 31.371094 23.589844 L 27.648438 23.589844 L 27.648438 31.546875 L 32.898438 31.546875 L 32.898438 30.160156 L 29.191406 30.160156 L 29.191406 28.25 Z M 26.148438 23.589844 C 25.5 23.605469 24.929688 24.027344 24.726562 24.648438 L 23.507812 28.378906 L 22.285156 24.648438 C 22.082031 24.03125 21.511719 23.605469 20.863281 23.589844 L 20.3125 23.589844 L 22.914062 31.546875 L 24.097656 31.546875 L 26.703125 23.589844 Z M 26.148438 23.589844 "/>
</g>
</svg>
