<?xml version="1.0" encoding="UTF-8"?>
<svg version="1.1" viewBox="0 0 128 120.32" xml:space="preserve" xmlns="http://www.w3.org/2000/svg"><title>monkey-binge</title><g transform="matrix(.23711 0 0 .23711 9.5128 1.0011)"><circle cx="211.73" cy="206.47" r="8.68" fill="#00aeef"/><circle cx="237.29" cy="206.47" r="8.68" fill="#00aeef"/><path d="m224.51 102.27a92.45 92.45 0 0 1 147.93-24.06 179 179 0 0 0-295.86 0 92.45 92.45 0 0 1 147.93 24.06z" fill="#000000"/><path d="m449.02 143.68a49.29 49.29 0 0 0-62.57-47.57 92.45 92.45 0 0 1-75.73 139.94 92.18 92.18 0 0 1 6.25 33.41c0 2.66-0.12 5.3-0.35 7.9h-184.22c-0.22-2.61-0.35-5.24-0.35-7.9a92.18 92.18 0 0 1 6.25-33.41 92.45 92.45 0 0 1-75.73-139.94 49.38 49.38 0 1 0-16.55 96.84l4.24 65.24 7.76-13.16 22 63.92 3.57-19.37 50.33 62.45-3-20.38a178 178 0 0 0 56.74 22.59 92.62 92.62 0 0 1-53.48-65.19h180.69a92.62 92.62 0 0 1-53.48 65.19 178 178 0 0 0 56.74-22.59l-3 20.38 50.33-62.45 3.56 19.38 22-63.92 7.74 13.17 4.26-65.24a49.39 49.39 0 0 0 46-49.29z" fill="#000000"/><path d="m330.5 186.78c1.29-0.79 2.57-1.67 3.8-2.61s2.35-1.9 3.47-2.95 2.15-2.12 3.13-3.24 1.91-2.28 2.79-3.5 1.66-2.43 2.43-3.73 1.44-2.61 2.05-3.93 1.18-2.71 1.68-4.09 0.93-2.8 1.28-4.22 0.65-2.87 0.88-4.33 0.38-2.92 0.47-4.39a44.14 44.14 0 0 0 0-4.42 43.54 43.54 0 0 0-0.4-4.42 43.73 43.73 0 0 0-2.14-8.71 43.61 43.61 0 0 0-4-8.31 42.78 42.78 0 0 0-8.21-9.65c-1-0.91-2.14-1.78-3.26-2.58s-2.25-1.53-3.48-2.25-2.42-1.33-3.65-1.9-2.52-1.09-3.82-1.55-2.61-0.85-3.93-1.18-2.66-0.6-4-0.81-2.72-0.34-4.08-0.42a40.55 40.55 0 0 0-4.11 0c-1.34 0.05-2.73 0.18-4.12 0.38a41.35 41.35 0 0 0-4.07 0.8 39.82 39.82 0 0 0-4 1.22 40.75 40.75 0 0 0-3.92 1.66 41.32 41.32 0 0 0-3.8 2.11 39.44 39.44 0 0 0-3.25 2.27c-1 0.8-2 1.66-3 2.56a38.23 38.23 0 0 0-2.67 2.8c-0.85 1-1.65 2-2.38 3a40.69 40.69 0 0 0-6.32 13.79 39.93 39.93 0 0 0-1.11 7.5c-0.07 1.26-0.07 2.54 0 3.8s0.18 2.56 0.36 3.8a37.46 37.46 0 0 0 3.45 11.11 39.24 39.24 0 0 0 2 3.51 36.4 36.4 0 0 0 4.46 5.69 37.08 37.08 0 0 0 5.38 4.63 37.44 37.44 0 0 0 12.7 5.76 36.77 36.77 0 0 0 6.91 1 35.19 35.19 0 0 0 7-0.35 34.66 34.66 0 0 0 6.88-1.78 33.56 33.56 0 0 0 3.32-1.45 34.27 34.27 0 0 0 3.22-1.83 33.14 33.14 0 0 0 5.17-4.1 33.72 33.72 0 0 0 4.2-4.94 34.06 34.06 0 0 0 3.16-5.58 34.5 34.5 0 0 0 2.06-6 33.18 33.18 0 0 0 0.88-6.3 32.35 32.35 0 0 0-0.36-6.38 31.34 31.34 0 0 0-4.7-12.24 30.1 30.1 0 0 0-3.83-4.75 30.77 30.77 0 0 0-4.49-3.77 31.53 31.53 0 0 0-5.07-2.83 30.69 30.69 0 0 0-5.48-1.83 30.36 30.36 0 0 0-5.72-0.77 28.28 28.28 0 0 0-16.79 4.7 27.23 27.23 0 0 0-4.14 3.39 27.71 27.71 0 0 0-3.35 4.05 28.15 28.15 0 0 0-2.51 4.56 27.77 27.77 0 0 0-1.6 4.92 26.69 26.69 0 0 0-0.65 5.13 25.57 25.57 0 0 0 0.36 5.18 25 25 0 0 0 1.44 5.07 25.57 25.57 0 0 0 2.57 4.81 24.49 24.49 0 0 0 6.65 6.56 24.78 24.78 0 0 0 8.43 3.57 24 24 0 0 0 4.55 0.53 22.14 22.14 0 0 0 13.3-4 20.88 20.88 0 0 0 3.12-2.69 21.63 21.63 0 0 0 5.53-10.59 20.5 20.5 0 0 0 0.41-4 19.47 19.47 0 0 0-0.38-4 19.1 19.1 0 0 0-3.34-7.56 18.54 18.54 0 0 0-11.48-7.19 18.72 18.72 0 0 0-3.41-0.29 16.74 16.74 0 0 0-3.41 0.4 16.12 16.12 0 0 0-6.42 3 15 15 0 0 0-2.12 2 15.85 15.85 0 0 0-1.68 2.35 15.51 15.51 0 0 0-1.93 5.38 14.44 14.44 0 0 0-0.16 2.86 13.11 13.11 0 0 0 3.23 8.13 12.11 12.11 0 0 0 1.65 1.6 12.27 12.27 0 0 0 4 2.12 12.21 12.21 0 0 0 2.22 0.48 10.85 10.85 0 0 0 2.34 0 11.1 11.1 0 0 0 2.37-0.47 10.65 10.65 0 0 0 2.26-1 10 10 0 0 0 2-1.61 9.35 9.35 0 0 0 1.91-2.85 9.52 9.52 0 0 0 0.76-3.38 7.86 7.86 0 0 0-0.15-1.88 7.66 7.66 0 0 0-0.62-1.91c-1.48-3-3.66-3.23-4-3.14-0.12 0-0.11 0.29-0.09 0.4 0.31 2.34 0.37 4.73-1.28 6.27a5.24 5.24 0 0 1-4.59 1.3 4.14 4.14 0 0 1-1.37-0.46 4.22 4.22 0 0 1-1.18-0.92 4.84 4.84 0 0 1-1-2.1 6 6 0 0 1 0-2.39 7.27 7.27 0 0 1 0.89-2.35 7 7 0 0 1 1.68-1.92 7.59 7.59 0 0 1 1.55-0.94 8.2 8.2 0 0 1 1.68-0.55 8.82 8.82 0 0 1 1.76-0.17 9.35 9.35 0 0 1 1.75 0.3 10.24 10.24 0 0 1 4.87 2.47 9.82 9.82 0 0 1 1.25 1.4 10.38 10.38 0 0 1 1.21 2.11 10.91 10.91 0 0 1 0.69 2.27 11.86 11.86 0 0 1 0.2 2.35 12.64 12.64 0 0 1-0.22 2.4 13.38 13.38 0 0 1-1.84 4.44 13.32 13.32 0 0 1-1.52 1.92 12.75 12.75 0 0 1-1.88 1.62 13.82 13.82 0 0 1-2.68 1.47 14.39 14.39 0 0 1-5.81 1 15.69 15.69 0 0 1-2.95-0.37 16.11 16.11 0 0 1-2.85-0.92 16.56 16.56 0 0 1-2.65-1.43 16 16 0 0 1-2.36-1.91 15.6 15.6 0 0 1-2-2.37 16.72 16.72 0 0 1-2.68-6.7 17.91 17.91 0 0 1-0.23-3.55 18.79 18.79 0 0 1 0.47-3.54 19.4 19.4 0 0 1 1.12-3.4 19.83 19.83 0 0 1 1.74-3.17 19.33 19.33 0 0 1 2.32-2.81 18.74 18.74 0 0 1 2.86-2.34 19.45 19.45 0 0 1 3.82-2 20 20 0 0 1 4.05-1.09 21.18 21.18 0 0 1 4.15-0.24 22 22 0 0 1 4.13 0.57 22.63 22.63 0 0 1 10.9 6.12 21.78 21.78 0 0 1 2.71 3.37 22.66 22.66 0 0 1 2.23 4.41 23.24 23.24 0 0 1 1.22 4.65 24.34 24.34 0 0 1 0.25 4.77 25.61 25.61 0 0 1-2.23 9.25 25.61 25.61 0 0 1-5.52 7.9 25.25 25.25 0 0 1-3.87 3.07 26 26 0 0 1-5 2.48 26.38 26.38 0 0 1-5.27 1.34 27.92 27.92 0 0 1-5.37 0.25 28.44 28.44 0 0 1-5.32-0.78 29.27 29.27 0 0 1-9.81-4.47 28.71 28.71 0 0 1-4.13-3.54 28.11 28.11 0 0 1-3.44-4.39 29 29 0 0 1-4.21-11.45 30.57 30.57 0 0 1-0.27-6 31.61 31.61 0 0 1 0.9-5.92 32 32 0 0 1 2-5.67 32.5 32.5 0 0 1 3-5.23 31.7 31.7 0 0 1 4-4.61 31.84 31.84 0 0 1 11.02-6.79 32.54 32.54 0 0 1 6.49-1.6 34.27 34.27 0 0 1 6.6-0.27 35.13 35.13 0 0 1 6.53 1 35.68 35.68 0 0 1 6.25 2.21 35.22 35.22 0 0 1 10.83 7.76 34 34 0 0 1 4.18 5.42 35 35 0 0 1 3.25 6.76 35.83 35.83 0 0 1 1.73 7.1 37.45 37.45 0 0 1 0.27 7.23 38.56 38.56 0 0 1-1.13 7.15 39.29 39.29 0 0 1-2.43 6.83 38.79 38.79 0 0 1-3.67 6.28 38.4 38.4 0 0 1-4.85 5.53 36.79 36.79 0 0 1-2.84 2.41 35.29 35.29 0 0 1-3.11 2.14 37.31 37.31 0 0 1-3.61 2 38.09 38.09 0 0 1-3.73 1.54 38.81 38.81 0 0 1-3.83 1.13 39.32 39.32 0 0 1-3.89 0.72 38.91 38.91 0 0 1-3.92 0.33 38.24 38.24 0 0 1-3.93-0.06c-1.29-0.08-2.6-0.22-3.9-0.43s-2.57-0.47-3.84-0.8-2.53-0.72-3.76-1.16-2.45-0.94-3.64-1.5-2.34-1.16-3.49-1.84-2.27-1.41-3.32-2.17-2.12-1.61-3.11-2.48a41.15 41.15 0 0 1-5.48-5.88 40.46 40.46 0 0 1-2.31-3.38 42.36 42.36 0 0 1-2.11-3.91 41.73 41.73 0 0 1-1.66-4 42.62 42.62 0 0 1-1.21-4.14c-0.32-1.38-0.58-2.79-0.77-4.2s-0.3-2.8-0.34-4.24 0-2.83 0.07-4.24 0.25-2.87 0.47-4.21 0.51-2.78 0.87-4.14 0.78-2.76 1.25-4.06 1-2.65 1.63-3.93 1.27-2.53 2-3.76 1.5-2.42 2.35-3.58 1.75-2.29 2.69-3.35 2-2.14 3-3.1a42.88 42.88 0 0 1 3.35-2.81 43.87 43.87 0 0 1 3.65-2.49 44.92 44.92 0 0 1 4.21-2.25 45.63 45.63 0 0 1 4.34-1.77 44.47 44.47 0 0 1 4.45-1.29 45.1 45.1 0 0 1 4.51-0.82c1.48-0.2 3-0.32 4.55-0.37s3 0 4.56 0.08 3 0.27 4.52 0.51 3 0.56 4.45 0.94 2.9 0.83 4.35 1.35 2.88 1.12 4.22 1.75 2.7 1.36 4 2.14 2.6 1.63 3.83 2.53 2.48 1.91 3.59 2.9 2.28 2.13 3.32 3.25a47.24 47.24 0 0 1 5.67 7.54c0.52 0.86 1 1.75 1.49 2.65a0.46 0.46 0 0 0 0.3 0.23 0.48 0.48 0 0 0 0.38-0.06 0.46 0.46 0 0 0 0.17-0.57 49.39 49.39 0 1 0-67.49 63.57 48.87 48.87 0 0 0 22.11 5.27 49.49 49.49 0 0 0 15.31-2.44c1.13-0.42 2.44-0.93 3.72-1.54a46 46 0 0 0 4.34-2.35z" fill="#00aeef"/><path d="m165.2 186.78c1.29-0.79 2.57-1.67 3.8-2.61s2.35-1.9 3.47-2.95 2.15-2.12 3.13-3.24 1.91-2.28 2.79-3.5 1.66-2.43 2.43-3.73 1.44-2.61 2.05-3.93 1.18-2.71 1.68-4.09 0.93-2.8 1.28-4.22 0.65-2.87 0.88-4.33 0.38-2.92 0.47-4.39a44.14 44.14 0 0 0 0-4.42 43.54 43.54 0 0 0-0.4-4.42 43.73 43.73 0 0 0-2.14-8.71 43.61 43.61 0 0 0-4-8.31 42.78 42.78 0 0 0-8.21-9.65c-1-0.91-2.14-1.78-3.26-2.58s-2.25-1.53-3.48-2.25-2.42-1.33-3.65-1.9-2.52-1.09-3.82-1.55-2.61-0.85-3.93-1.18-2.66-0.6-4-0.81-2.72-0.34-4.08-0.42a40.55 40.55 0 0 0-4.11 0c-1.34 0.05-2.73 0.18-4.12 0.38a41.35 41.35 0 0 0-4.07 0.8 39.82 39.82 0 0 0-4 1.22 40.75 40.75 0 0 0-3.92 1.66 41.32 41.32 0 0 0-3.8 2.11 39.44 39.44 0 0 0-3.25 2.27c-1 0.8-2 1.66-3 2.56a38.23 38.23 0 0 0-2.67 2.8c-0.85 1-1.65 2-2.38 3a40.69 40.69 0 0 0-6.32 13.79 39.93 39.93 0 0 0-1.11 7.5c-0.07 1.26-0.07 2.54 0 3.8s0.18 2.56 0.36 3.8a37.46 37.46 0 0 0 3.45 11.11 39.24 39.24 0 0 0 2 3.51 36.4 36.4 0 0 0 4.46 5.69 37.08 37.08 0 0 0 5.38 4.63 37.44 37.44 0 0 0 12.7 5.76 36.77 36.77 0 0 0 6.91 1 35.19 35.19 0 0 0 7-0.35 34.66 34.66 0 0 0 6.88-1.78 33.56 33.56 0 0 0 3.32-1.45 34.27 34.27 0 0 0 3.22-1.83 33.14 33.14 0 0 0 5.17-4.1 33.72 33.72 0 0 0 4.2-4.94 34.06 34.06 0 0 0 3.16-5.58 34.5 34.5 0 0 0 2.06-6 33.18 33.18 0 0 0 0.88-6.3 32.35 32.35 0 0 0-0.36-6.38 31.34 31.34 0 0 0-4.7-12.24 30.1 30.1 0 0 0-3.74-4.66 30.77 30.77 0 0 0-4.49-3.77 31.53 31.53 0 0 0-5.07-2.83 30.69 30.69 0 0 0-5.48-1.83 30.36 30.36 0 0 0-5.72-0.77 28.28 28.28 0 0 0-16.87 4.61 27.23 27.23 0 0 0-4.16 3.4 27.71 27.71 0 0 0-3.35 4.05 28.15 28.15 0 0 0-2.51 4.56 27.77 27.77 0 0 0-1.6 4.92 26.69 26.69 0 0 0-0.65 5.13 25.57 25.57 0 0 0 0.36 5.18 25 25 0 0 0 1.44 5.07 25.57 25.57 0 0 0 2.57 4.81 24.49 24.49 0 0 0 6.65 6.56 24.78 24.78 0 0 0 8.43 3.57 24 24 0 0 0 4.55 0.53 22.14 22.14 0 0 0 13.3-4 20.88 20.88 0 0 0 3.12-2.69 21.63 21.63 0 0 0 5.53-10.59 20.5 20.5 0 0 0 0.41-4 19.47 19.47 0 0 0-0.38-4 19.1 19.1 0 0 0-3.34-7.56 18.54 18.54 0 0 0-11.48-7.19 18.72 18.72 0 0 0-3.41-0.29 16.74 16.74 0 0 0-3.41 0.4 16.12 16.12 0 0 0-6.42 3 15 15 0 0 0-2.12 2 15.85 15.85 0 0 0-1.68 2.35 15.51 15.51 0 0 0-1.93 5.38 14.44 14.44 0 0 0-0.16 2.86 13.11 13.11 0 0 0 3.23 8.13 12.11 12.11 0 0 0 1.65 1.6 12.27 12.27 0 0 0 4 2.12 12.21 12.21 0 0 0 2.22 0.48 10.85 10.85 0 0 0 2.34 0 11.1 11.1 0 0 0 2.37-0.47 10.65 10.65 0 0 0 2.26-1 10 10 0 0 0 2-1.61 9.35 9.35 0 0 0 1.91-2.85 9.52 9.52 0 0 0 0.76-3.38 7.86 7.86 0 0 0-0.15-1.88 7.66 7.66 0 0 0-0.62-1.91c-1.48-3-3.66-3.23-4-3.14-0.12 0-0.11 0.29-0.09 0.4 0.31 2.34 0.37 4.73-1.28 6.27a5.24 5.24 0 0 1-4.59 1.3 4.14 4.14 0 0 1-1.37-0.46 4.22 4.22 0 0 1-1.18-0.92 4.84 4.84 0 0 1-1-2.1 6 6 0 0 1 0-2.39 7.27 7.27 0 0 1 0.89-2.35 7 7 0 0 1 1.68-1.92 7.59 7.59 0 0 1 1.55-0.94 8.2 8.2 0 0 1 1.68-0.55 8.82 8.82 0 0 1 1.76-0.17 9.35 9.35 0 0 1 1.79 0.18 10.24 10.24 0 0 1 4.87 2.47 9.82 9.82 0 0 1 1.25 1.4 10.38 10.38 0 0 1 1.15 2.24 10.91 10.91 0 0 1 0.69 2.27 11.86 11.86 0 0 1 0.2 2.35 12.64 12.64 0 0 1-0.27 2.37 13.38 13.38 0 0 1-1.84 4.44 13.32 13.32 0 0 1-1.52 1.92 12.75 12.75 0 0 1-1.88 1.62 13.82 13.82 0 0 1-2.68 1.47 14.39 14.39 0 0 1-5.81 1 15.69 15.69 0 0 1-2.95-0.37 16.11 16.11 0 0 1-2.85-0.92 16.56 16.56 0 0 1-2.65-1.43 16 16 0 0 1-2.36-1.91 15.6 15.6 0 0 1-2-2.37 16.72 16.72 0 0 1-2.68-6.7 17.91 17.91 0 0 1-0.23-3.55 18.79 18.79 0 0 1 0.47-3.54 19.4 19.4 0 0 1 1.12-3.4 19.83 19.83 0 0 1 1.74-3.17 19.33 19.33 0 0 1 2.32-2.81 18.74 18.74 0 0 1 2.86-2.34 19.45 19.45 0 0 1 3.82-2 20 20 0 0 1 4.05-1.09 21.18 21.18 0 0 1 4.15-0.24 22 22 0 0 1 4.13 0.57 22.63 22.63 0 0 1 10.9 6.12 21.78 21.78 0 0 1 2.71 3.37 22.66 22.66 0 0 1 2.23 4.41 23.24 23.24 0 0 1 1.22 4.65 24.34 24.34 0 0 1 0.25 4.77 25.61 25.61 0 0 1-2.23 9.25 25.61 25.61 0 0 1-5.52 7.9 25.25 25.25 0 0 1-3.87 3.07 26 26 0 0 1-5 2.48 26.38 26.38 0 0 1-5.27 1.34 27.92 27.92 0 0 1-5.37 0.25 28.44 28.44 0 0 1-5.32-0.78 29.27 29.27 0 0 1-9.81-4.47 28.71 28.71 0 0 1-4.16-3.57 28.11 28.11 0 0 1-3.44-4.39 29 29 0 0 1-4.15-11.39 30.57 30.57 0 0 1-0.27-6 31.61 31.61 0 0 1 0.9-5.92 32 32 0 0 1 2-5.67 32.5 32.5 0 0 1 3-5.23 31.7 31.7 0 0 1 4-4.61 31.84 31.84 0 0 1 11.07-6.81 32.54 32.54 0 0 1 6.49-1.6 34.27 34.27 0 0 1 6.6-0.27 35.13 35.13 0 0 1 6.53 1 35.68 35.68 0 0 1 6.25 2.21 35.22 35.22 0 0 1 10.83 7.76 34 34 0 0 1 4.18 5.42 35 35 0 0 1 3.25 6.76 35.83 35.83 0 0 1 1.73 7.1 37.45 37.45 0 0 1 0.27 7.23 38.56 38.56 0 0 1-1.11 7.13 39.29 39.29 0 0 1-2.43 6.83 38.79 38.79 0 0 1-3.67 6.28 38.4 38.4 0 0 1-4.85 5.53 36.79 36.79 0 0 1-2.84 2.41 35.29 35.29 0 0 1-3.11 2.14 37.31 37.31 0 0 1-3.61 2 38.09 38.09 0 0 1-3.73 1.54 38.81 38.81 0 0 1-3.83 1.13 39.32 39.32 0 0 1-3.89 0.72 38.91 38.91 0 0 1-3.92 0.33 38.24 38.24 0 0 1-3.93-0.06c-1.29-0.08-2.6-0.22-3.9-0.43s-2.57-0.47-3.84-0.8-2.53-0.72-3.76-1.16-2.45-0.94-3.64-1.5-2.34-1.16-3.49-1.84-2.27-1.41-3.32-2.17-2.12-1.61-3.11-2.48a41.15 41.15 0 0 1-5.48-5.88 40.46 40.46 0 0 1-2.31-3.38 42.36 42.36 0 0 1-2.11-3.91 41.73 41.73 0 0 1-1.66-4 42.62 42.62 0 0 1-1.21-4.14c-0.32-1.38-0.58-2.79-0.77-4.2s-0.3-2.8-0.34-4.24 0-2.83 0.07-4.24 0.25-2.87 0.47-4.21 0.51-2.78 0.87-4.14 0.78-2.76 1.25-4.06 1-2.65 1.63-3.93 1.27-2.53 2-3.76 1.5-2.42 2.35-3.58 1.75-2.29 2.69-3.35 2-2.14 3-3.1a42.88 42.88 0 0 1 3.35-2.81 43.87 43.87 0 0 1 3.65-2.49 44.92 44.92 0 0 1 4.21-2.25 45.63 45.63 0 0 1 4.34-1.77 44.47 44.47 0 0 1 4.45-1.29 45.1 45.1 0 0 1 4.51-0.82c1.48-0.2 3-0.32 4.55-0.37s3 0 4.56 0.08 3 0.27 4.52 0.51 3 0.56 4.45 0.94 2.9 0.83 4.35 1.35 2.88 1.12 4.22 1.75 2.7 1.36 4 2.14 2.6 1.63 3.83 2.53 2.48 1.91 3.59 2.9 2.28 2.13 3.32 3.25a47.24 47.24 0 0 1 5.67 7.54c0.52 0.86 1 1.75 1.49 2.65a0.46 0.46 0 0 0 0.3 0.23 0.48 0.48 0 0 0 0.38-0.06 0.46 0.46 0 0 0 0.17-0.57 49.39 49.39 0 1 0-67.57 63.61 48.87 48.87 0 0 0 22.11 5.27 49.49 49.49 0 0 0 15.31-2.44c1.13-0.42 2.44-0.93 3.72-1.54a46 46 0 0 0 4.4-2.37z" fill="#00aeef"/></g><g id="HIDIVE_logo" transform="matrix(.35764 0 0 .35764 1.6 88.7)"><rect id="Rectangle" x="183.11" y="2.8422e-14" width="16.33" height="83.65" fill="#00aeef"/><path id="Shape" d="m151.71 0h-44.37v83.65h44.37c8.9194 0 16.15-7.2306 16.15-16.15v-51.35c0-8.9194-7.2306-16.15-16.15-16.15m1.58 61.65c0 4.098-3.322 7.42-7.42 7.42h-22.17v-54.5h22.17c4.098 0 7.42 3.322 7.42 7.42z" fill="#00aeef"/><rect x="75.77" y="2.8422e-14" width="16.33" height="83.65" fill="#000000"/><path id="Path" d="m44.15 0v34.43h-27.81v-34.43h-0.19c-8.9194 0-16.15 7.2306-16.15 16.15v67.5h16.33v-34.65h27.82v34.65h16.33v-83.65z" fill="#000000"/><path d="m342.29 49v-14.56h-39.14v-19.87h39c-0.80995-8.2401-7.7203-14.533-16-14.57h-39.3v83.65h55.44v-14.57h-39.14v-20.08z" fill="#00aeef"/><path d="m271.03 0c-6.8549 0.15212-12.868 4.6135-15 11.13l-12.88 39.21-12.9-39.21c-2.1325-6.5165-8.1451-10.978-15-11.13h-5.83l27.47 83.65h12.49l27.49-83.65z" fill="#00aeef"/></g></svg>
